<?xml version="1.0" encoding="UTF-8" standalone="no"?>
<!DOCTYPE svg PUBLIC "-//W3C//DTD SVG 1.1//EN"
 "http://www.w3.org/Graphics/SVG/1.1/DTD/svg11.dtd">
<!-- Generated by graphviz version 13.1.2 (20250808.2320)
 -->
<!-- Pages: 1 -->
<svg width="1418pt" height="188pt"
 viewBox="0.00 0.00 1418.00 188.00" xmlns="http://www.w3.org/2000/svg" xmlns:xlink="http://www.w3.org/1999/xlink">
<g id="graph0" class="graph" transform="scale(1 1) rotate(0) translate(4 184)">
<polygon fill="white" stroke="none" points="-4,4 -4,-184 1414,-184 1414,4 -4,4"/>
<!-- A -->
<g id="node1" class="node">
<title>A</title>
<path fill="lightGray" stroke="lightGray" d="M790,-180C790,-180 732.75,-180 732.75,-180 726.75,-180 720.75,-174 720.75,-168 720.75,-168 720.75,-156 720.75,-156 720.75,-150 726.75,-144 732.75,-144 732.75,-144 790,-144 790,-144 796,-144 802,-150 802,-156 802,-156 802,-168 802,-168 802,-174 796,-180 790,-180"/>
<text xml:space="preserve" text-anchor="middle" x="761.38" y="-156.95" font-family="Times New Roman,serif" font-size="14.00">Presupuesto</text>
</g>
<!-- B -->
<g id="node2" class="node">
<title>B</title>
<path fill="lightBlue" stroke="lightBlue" d="M342.75,-108C342.75,-108 308,-108 308,-108 302,-108 296,-102 296,-96 296,-96 296,-84 296,-84 296,-78 302,-72 308,-72 308,-72 342.75,-72 342.75,-72 348.75,-72 354.75,-78 354.75,-84 354.75,-84 354.75,-96 354.75,-96 354.75,-102 348.75,-108 342.75,-108"/>
<text xml:space="preserve" text-anchor="middle" x="325.38" y="-84.95" font-family="Times New Roman,serif" font-size="14.00">Hosting</text>
</g>
<!-- A&#45;&gt;B -->
<g id="edge1" class="edge">
<title>A&#45;&gt;B</title>
<path fill="none" stroke="black" d="M720.36,-162C611.82,-162 325.38,-162 325.38,-162 325.38,-162 325.38,-119.68 325.38,-119.68"/>
<polygon fill="black" stroke="black" points="328.88,-119.68 325.38,-109.68 321.88,-119.68 328.88,-119.68"/>
</g>
<!-- C -->
<g id="node3" class="node">
<title>C</title>
<path fill="lightgreen" stroke="lightgreen" d="M799,-108C799,-108 723.75,-108 723.75,-108 717.75,-108 711.75,-102 711.75,-96 711.75,-96 711.75,-84 711.75,-84 711.75,-78 717.75,-72 723.75,-72 723.75,-72 799,-72 799,-72 805,-72 811,-78 811,-84 811,-84 811,-96 811,-96 811,-102 805,-108 799,-108"/>
<text xml:space="preserve" text-anchor="middle" x="761.38" y="-84.95" font-family="Times New Roman,serif" font-size="14.00">Bases de Datos</text>
</g>
<!-- A&#45;&gt;C -->
<g id="edge2" class="edge">
<title>A&#45;&gt;C</title>
<path fill="none" stroke="black" d="M761.38,-143.83C761.38,-143.83 761.38,-119.93 761.38,-119.93"/>
<polygon fill="black" stroke="black" points="764.88,-119.93 761.38,-109.93 757.88,-119.93 764.88,-119.93"/>
</g>
<!-- D -->
<g id="node4" class="node">
<title>D</title>
<path fill="lightsalmon" stroke="lightsalmon" d="M1186.38,-108C1186.38,-108 1140.38,-108 1140.38,-108 1134.38,-108 1128.38,-102 1128.38,-96 1128.38,-96 1128.38,-84 1128.38,-84 1128.38,-78 1134.38,-72 1140.38,-72 1140.38,-72 1186.38,-72 1186.38,-72 1192.38,-72 1198.38,-78 1198.38,-84 1198.38,-84 1198.38,-96 1198.38,-96 1198.38,-102 1192.38,-108 1186.38,-108"/>
<text xml:space="preserve" text-anchor="middle" x="1163.38" y="-84.95" font-family="Times New Roman,serif" font-size="14.00">Dominios</text>
</g>
<!-- A&#45;&gt;D -->
<g id="edge3" class="edge">
<title>A&#45;&gt;D</title>
<path fill="none" stroke="black" d="M802.13,-162C904.33,-162 1163.38,-162 1163.38,-162 1163.38,-162 1163.38,-119.68 1163.38,-119.68"/>
<polygon fill="black" stroke="black" points="1166.88,-119.68 1163.38,-109.68 1159.88,-119.68 1166.88,-119.68"/>
</g>
<!-- E -->
<g id="node5" class="node">
<title>E</title>
<g id="a_node5"><a xlink:href="https://www.colombiahosting.com.co/hosting" xlink:title="ColombiaHosting">
<path fill="#b2dfee" stroke="#b2dfee" d="M100.75,-36C100.75,-36 12,-36 12,-36 6,-36 0,-30 0,-24 0,-24 0,-12 0,-12 0,-6 6,0 12,0 12,0 100.75,0 100.75,0 106.75,0 112.75,-6 112.75,-12 112.75,-12 112.75,-24 112.75,-24 112.75,-30 106.75,-36 100.75,-36"/>
<text xml:space="preserve" text-anchor="middle" x="56.38" y="-12.95" font-family="Times New Roman,serif" font-size="14.00">ColombiaHosting</text>
</a>
</g>
</g>
<!-- B&#45;&gt;E -->
<g id="edge4" class="edge">
<title>B&#45;&gt;E</title>
<path fill="none" stroke="black" d="M295.56,-96C225.52,-96 56.38,-96 56.38,-96 56.38,-96 56.38,-48 56.38,-48"/>
<polygon fill="black" stroke="black" points="59.88,-48 56.38,-38 52.88,-48 59.88,-48"/>
</g>
<!-- F -->
<g id="node6" class="node">
<title>F</title>
<g id="a_node6"><a xlink:href="https://www.latinoamericahosting.com.co/hosting-wordpress/#planes-hosting-wordpress" xlink:title="Latinoamerica Hosting">
<path fill="#b2dfee" stroke="#b2dfee" d="M260,-36C260,-36 142.75,-36 142.75,-36 136.75,-36 130.75,-30 130.75,-24 130.75,-24 130.75,-12 130.75,-12 130.75,-6 136.75,0 142.75,0 142.75,0 260,0 260,0 266,0 272,-6 272,-12 272,-12 272,-24 272,-24 272,-30 266,-36 260,-36"/>
<text xml:space="preserve" text-anchor="middle" x="201.38" y="-12.95" font-family="Times New Roman,serif" font-size="14.00">Latinoamerica Hosting</text>
</a>
</g>
</g>
<!-- B&#45;&gt;F -->
<g id="edge5" class="edge">
<title>B&#45;&gt;F</title>
<path fill="none" stroke="black" d="M295.67,-84C258.99,-84 201.38,-84 201.38,-84 201.38,-84 201.38,-47.9 201.38,-47.9"/>
<polygon fill="black" stroke="black" points="204.88,-47.9 201.38,-37.9 197.88,-47.9 204.88,-47.9"/>
</g>
<!-- G -->
<g id="node7" class="node">
<title>G</title>
<g id="a_node7"><a xlink:href="https://conexcol.net.co/hosting/reseller/" xlink:title="ConexCol">
<path fill="#b2dfee" stroke="#b2dfee" d="M348.75,-36C348.75,-36 302,-36 302,-36 296,-36 290,-30 290,-24 290,-24 290,-12 290,-12 290,-6 296,0 302,0 302,0 348.75,0 348.75,0 354.75,0 360.75,-6 360.75,-12 360.75,-12 360.75,-24 360.75,-24 360.75,-30 354.75,-36 348.75,-36"/>
<text xml:space="preserve" text-anchor="middle" x="325.38" y="-12.95" font-family="Times New Roman,serif" font-size="14.00">ConexCol</text>
</a>
</g>
</g>
<!-- B&#45;&gt;G -->
<g id="edge6" class="edge">
<title>B&#45;&gt;G</title>
<path fill="none" stroke="black" d="M325.38,-71.83C325.38,-71.83 325.38,-47.93 325.38,-47.93"/>
<polygon fill="black" stroke="black" points="328.88,-47.93 325.38,-37.93 321.88,-47.93 328.88,-47.93"/>
</g>
<!-- H -->
<g id="node8" class="node">
<title>H</title>
<g id="a_node8"><a xlink:href="https://www.hostinger.com/co/hosting-wordpress" xlink:title="Hostinger">
<path fill="#b2dfee" stroke="#b2dfee" d="M436,-36C436,-36 390.75,-36 390.75,-36 384.75,-36 378.75,-30 378.75,-24 378.75,-24 378.75,-12 378.75,-12 378.75,-6 384.75,0 390.75,0 390.75,0 436,0 436,0 442,0 448,-6 448,-12 448,-12 448,-24 448,-24 448,-30 442,-36 436,-36"/>
<text xml:space="preserve" text-anchor="middle" x="413.38" y="-12.95" font-family="Times New Roman,serif" font-size="14.00">Hostinger</text>
</a>
</g>
</g>
<!-- B&#45;&gt;H -->
<g id="edge7" class="edge">
<title>B&#45;&gt;H</title>
<path fill="none" stroke="black" d="M355.17,-84C380.7,-84 413.38,-84 413.38,-84 413.38,-84 413.38,-47.9 413.38,-47.9"/>
<polygon fill="black" stroke="black" points="416.88,-47.9 413.38,-37.9 409.88,-47.9 416.88,-47.9"/>
</g>
<!-- I -->
<g id="node9" class="node">
<title>I</title>
<g id="a_node9"><a xlink:href="https://firebase.google.com/products/realtime-database" xlink:title="Firebase Realtime Database">
<path fill="lightgreen" stroke="lightgreen" d="M622.5,-36C622.5,-36 478.25,-36 478.25,-36 472.25,-36 466.25,-30 466.25,-24 466.25,-24 466.25,-12 466.25,-12 466.25,-6 472.25,0 478.25,0 478.25,0 622.5,0 622.5,0 628.5,0 634.5,-6 634.5,-12 634.5,-12 634.5,-24 634.5,-24 634.5,-30 628.5,-36 622.5,-36"/>
<text xml:space="preserve" text-anchor="middle" x="550.38" y="-12.95" font-family="Times New Roman,serif" font-size="14.00">Firebase Realtime Database</text>
</a>
</g>
</g>
<!-- C&#45;&gt;I -->
<g id="edge8" class="edge">
<title>C&#45;&gt;I</title>
<path fill="none" stroke="black" d="M711.37,-96C648.98,-96 550.38,-96 550.38,-96 550.38,-96 550.38,-48 550.38,-48"/>
<polygon fill="black" stroke="black" points="553.88,-48 550.38,-38 546.88,-48 553.88,-48"/>
</g>
<!-- J -->
<g id="node10" class="node">
<title>J</title>
<g id="a_node10"><a xlink:href="https://www.mongodb.com/atlas" xlink:title="MongoDB Atlas">
<path fill="lightgreen" stroke="lightgreen" d="M746.38,-36C746.38,-36 664.38,-36 664.38,-36 658.38,-36 652.38,-30 652.38,-24 652.38,-24 652.38,-12 652.38,-12 652.38,-6 658.38,0 664.38,0 664.38,0 746.38,0 746.38,0 752.38,0 758.38,-6 758.38,-12 758.38,-12 758.38,-24 758.38,-24 758.38,-30 752.38,-36 746.38,-36"/>
<text xml:space="preserve" text-anchor="middle" x="705.38" y="-12.95" font-family="Times New Roman,serif" font-size="14.00">MongoDB Atlas</text>
</a>
</g>
</g>
<!-- C&#45;&gt;J -->
<g id="edge9" class="edge">
<title>C&#45;&gt;J</title>
<path fill="none" stroke="black" d="M735.06,-71.83C735.06,-71.83 735.06,-47.93 735.06,-47.93"/>
<polygon fill="black" stroke="black" points="738.56,-47.93 735.06,-37.93 731.56,-47.93 738.56,-47.93"/>
</g>
<!-- K -->
<g id="node11" class="node">
<title>K</title>
<g id="a_node11"><a xlink:href="https://www.postgresql.org" xlink:title="PostgreSQL">
<path fill="lightgreen" stroke="lightgreen" d="M846.38,-36C846.38,-36 788.38,-36 788.38,-36 782.38,-36 776.38,-30 776.38,-24 776.38,-24 776.38,-12 776.38,-12 776.38,-6 782.38,0 788.38,0 788.38,0 846.38,0 846.38,0 852.38,0 858.38,-6 858.38,-12 858.38,-12 858.38,-24 858.38,-24 858.38,-30 852.38,-36 846.38,-36"/>
<text xml:space="preserve" text-anchor="middle" x="817.38" y="-12.95" font-family="Times New Roman,serif" font-size="14.00">PostgreSQL</text>
</a>
</g>
</g>
<!-- C&#45;&gt;K -->
<g id="edge10" class="edge">
<title>C&#45;&gt;K</title>
<path fill="none" stroke="black" d="M793.69,-71.83C793.69,-71.83 793.69,-47.93 793.69,-47.93"/>
<polygon fill="black" stroke="black" points="797.19,-47.93 793.69,-37.93 790.19,-47.93 797.19,-47.93"/>
</g>
<!-- L -->
<g id="node12" class="node">
<title>L</title>
<g id="a_node12"><a xlink:href="https://supabase.com" xlink:title="Supabase">
<path fill="lightgreen" stroke="lightgreen" d="M931.88,-36C931.88,-36 888.88,-36 888.88,-36 882.88,-36 876.88,-30 876.88,-24 876.88,-24 876.88,-12 876.88,-12 876.88,-6 882.88,0 888.88,0 888.88,0 931.88,0 931.88,0 937.88,0 943.88,-6 943.88,-12 943.88,-12 943.88,-24 943.88,-24 943.88,-30 937.88,-36 931.88,-36"/>
<text xml:space="preserve" text-anchor="middle" x="910.38" y="-12.95" font-family="Times New Roman,serif" font-size="14.00">Supabase</text>
</a>
</g>
</g>
<!-- C&#45;&gt;L -->
<g id="edge11" class="edge">
<title>C&#45;&gt;L</title>
<path fill="none" stroke="black" d="M811.4,-96C854.69,-96 910.38,-96 910.38,-96 910.38,-96 910.38,-48 910.38,-48"/>
<polygon fill="black" stroke="black" points="913.88,-48 910.38,-38 906.88,-48 913.88,-48"/>
</g>
<!-- M -->
<g id="node13" class="node">
<title>M</title>
<g id="a_node13"><a xlink:href="https://www.colombiahosting.com.co/registro-dominios#registrar" xlink:title="ColombiaHosting">
<path fill="#ee9572" stroke="#ee9572" d="M1062.75,-36C1062.75,-36 974,-36 974,-36 968,-36 962,-30 962,-24 962,-24 962,-12 962,-12 962,-6 968,0 974,0 974,0 1062.75,0 1062.75,0 1068.75,0 1074.75,-6 1074.75,-12 1074.75,-12 1074.75,-24 1074.75,-24 1074.75,-30 1068.75,-36 1062.75,-36"/>
<text xml:space="preserve" text-anchor="middle" x="1018.38" y="-12.95" font-family="Times New Roman,serif" font-size="14.00">ColombiaHosting</text>
</a>
</g>
</g>
<!-- D&#45;&gt;M -->
<g id="edge12" class="edge">
<title>D&#45;&gt;M</title>
<path fill="none" stroke="black" d="M1127.9,-84C1084.98,-84 1018.38,-84 1018.38,-84 1018.38,-84 1018.38,-47.9 1018.38,-47.9"/>
<polygon fill="black" stroke="black" points="1021.88,-47.9 1018.38,-37.9 1014.88,-47.9 1021.88,-47.9"/>
</g>
<!-- N -->
<g id="node14" class="node">
<title>N</title>
<g id="a_node14"><a xlink:href="https://www.latinoamericahosting.com.co/dominios/" xlink:title="Latinoamerica Hosting">
<path fill="#ee9572" stroke="#ee9572" d="M1222,-36C1222,-36 1104.75,-36 1104.75,-36 1098.75,-36 1092.75,-30 1092.75,-24 1092.75,-24 1092.75,-12 1092.75,-12 1092.75,-6 1098.75,0 1104.75,0 1104.75,0 1222,0 1222,0 1228,0 1234,-6 1234,-12 1234,-12 1234,-24 1234,-24 1234,-30 1228,-36 1222,-36"/>
<text xml:space="preserve" text-anchor="middle" x="1163.38" y="-12.95" font-family="Times New Roman,serif" font-size="14.00">Latinoamerica Hosting</text>
</a>
</g>
</g>
<!-- D&#45;&gt;N -->
<g id="edge13" class="edge">
<title>D&#45;&gt;N</title>
<path fill="none" stroke="black" d="M1163.38,-71.83C1163.38,-71.83 1163.38,-47.93 1163.38,-47.93"/>
<polygon fill="black" stroke="black" points="1166.88,-47.93 1163.38,-37.93 1159.88,-47.93 1166.88,-47.93"/>
</g>
<!-- O -->
<g id="node15" class="node">
<title>O</title>
<g id="a_node15"><a xlink:href="https://portal.conexcol.net.co/checkdomain/dominios/" xlink:title="ConexCol">
<path fill="#ee9572" stroke="#ee9572" d="M1310.75,-36C1310.75,-36 1264,-36 1264,-36 1258,-36 1252,-30 1252,-24 1252,-24 1252,-12 1252,-12 1252,-6 1258,0 1264,0 1264,0 1310.75,0 1310.75,0 1316.75,0 1322.75,-6 1322.75,-12 1322.75,-12 1322.75,-24 1322.75,-24 1322.75,-30 1316.75,-36 1310.75,-36"/>
<text xml:space="preserve" text-anchor="middle" x="1287.38" y="-12.95" font-family="Times New Roman,serif" font-size="14.00">ConexCol</text>
</a>
</g>
</g>
<!-- D&#45;&gt;O -->
<g id="edge14" class="edge">
<title>D&#45;&gt;O</title>
<path fill="none" stroke="black" d="M1198.58,-84C1235.24,-84 1287.38,-84 1287.38,-84 1287.38,-84 1287.38,-47.9 1287.38,-47.9"/>
<polygon fill="black" stroke="black" points="1290.88,-47.9 1287.38,-37.9 1283.88,-47.9 1290.88,-47.9"/>
</g>
<!-- P -->
<g id="node16" class="node">
<title>P</title>
<g id="a_node16"><a xlink:href="https://www.hostinger.com/co/domain-name-results?from=domain-name-search&amp;domain=.com" xlink:title="Hostinger">
<path fill="#ee9572" stroke="#ee9572" d="M1398,-36C1398,-36 1352.75,-36 1352.75,-36 1346.75,-36 1340.75,-30 1340.75,-24 1340.75,-24 1340.75,-12 1340.75,-12 1340.75,-6 1346.75,0 1352.75,0 1352.75,0 1398,0 1398,0 1404,0 1410,-6 1410,-12 1410,-12 1410,-24 1410,-24 1410,-30 1404,-36 1398,-36"/>
<text xml:space="preserve" text-anchor="middle" x="1375.38" y="-12.95" font-family="Times New Roman,serif" font-size="14.00">Hostinger</text>
</a>
</g>
</g>
<!-- D&#45;&gt;P -->
<g id="edge15" class="edge">
<title>D&#45;&gt;P</title>
<path fill="none" stroke="black" d="M1198.86,-96C1259.21,-96 1375.38,-96 1375.38,-96 1375.38,-96 1375.38,-48 1375.38,-48"/>
<polygon fill="black" stroke="black" points="1378.88,-48 1375.38,-38 1371.88,-48 1378.88,-48"/>
</g>
</g>
</svg>
